<svg id="Layer_1" data-name="Layer 1" xmlns="http://www.w3.org/2000/svg" xmlns:xlink="http://www.w3.org/1999/xlink" viewBox="0 0 300.19 416.87"><defs><style>.cls-1{fill:url(#linear-gradient);}.cls-2{fill:#fff;stroke:#fff;stroke-miterlimit:10;stroke-width:6px;}.cls-3{fill:url(#linear-gradient-2);}.cls-4{fill:url(#linear-gradient-3);}</style><linearGradient id="linear-gradient" x1="132.51" y1="264.03" x2="432.7" y2="264.03" gradientUnits="userSpaceOnUse"><stop offset="0" stop-color="#8a2be2"/><stop offset="1" stop-color="#6a28af"/></linearGradient><linearGradient id="linear-gradient-2" x1="191.73" y1="460.06" x2="403.53" y2="460.06" gradientUnits="userSpaceOnUse"><stop offset="0" stop-color="#1b1f41"/><stop offset="1" stop-color="#000c1a"/></linearGradient><linearGradient id="linear-gradient-3" x1="240.66" y1="309.03" x2="328.59" y2="221.1" gradientUnits="userSpaceOnUse"><stop offset="0" stop-color="#f6da66"/><stop offset="1" stop-color="#f9be3b"/></linearGradient></defs><title>favicon</title><path class="cls-1" d="M317.19,154.49c-12.61,1.63-16.48,2.58-25.5,6.17L285.85,163,280,160.53c-9.83-4-16.35-5.29-27.26-5.29a79.81,79.81,0,0,0-37.37,9.09c-9.5,4.75-13.63,7.73-21,15.12S183,192.34,177.88,202.71c-1.9,3.8-4.14,7.39-5,8s-3.46,2.31-5.9,3.87c-6.38,4.07-17.91,16-22.31,23.2a78.85,78.85,0,0,0-12.07,39.07c-.75,18.24,4.43,38.22,16.3,56.13,11.73,17.63,29,27.33,52.9,35.27,13.5,4.48,18.18,5.43,33.23,5.43s17.41-1.05,46.91-9c19.8-5.36,53-14.24,87.49-23.4,28.42-7.53,33-9.29,41.3-15.94,16.41-13.09,24.35-33.5,21.36-55-2.44-17.7-11.05-32.28-27.4-46.59-6.31-5.56-6.71-6.17-9-14C387,179,357.88,156.46,324.65,154.56A55.65,55.65,0,0,0,317.19,154.49Z" transform="translate(-132.51 -154.4)"/><path class="cls-2" d="M309.37,201.89a4.84,4.84,0,0,1,1.57,4.34c-.1,1.36-2.14,11.44-4.55,22.47-1.67,7.67-3,14.43-3.67,17.91a2.61,2.61,0,0,0,2.3,3.05c3.08.33,8.63.52,15.95.52,6.17.05,12,.26,13,.57,2.66.73,4.23,2.46,4.23,4.55,0,3.19.42,2.66-19.12,22.88-13.95,14.42-50.63,50.21-52.56,51.25a5.3,5.3,0,0,1-2.66.73,5.13,5.13,0,0,1-5.07-5.07c0-1.72,3.66-19.07,6.79-32.08,2.3-9.46,2.46-10.82,1.36-11.23-.42-.16-8.52-.42-18.08-.63l-16.18-.34a2.69,2.69,0,0,1-2.06-.94l-.45-.49c-1.93-2.25-1.58-4.5,1-7.79,2.87-3.66,68.65-69.8,70.69-71.11C304,198.71,308.13,200.41,309.37,201.89Z" transform="translate(-132.51 -154.4)"/><path class="cls-3" d="M394,349.46c-.94.29-10.3,2.81-20.79,5.56-72.6,19.15-176.94,47.78-179,49.18-2.52,1.64-3.28,6.5-1.41,8.78.53.7,6,4.22,12.12,7.85,19.67,11.77,35.66,21.72,37.3,23.3a4.57,4.57,0,0,1,1.64,2.52c0,.53-4,6.32-9,12.88-10.19,13.52-10.36,13.82-10.36,16.39,0,1.64,11,27.28,22.6,52.64,1.82,4,6.62,14.81,10.6,24s7.79,17.15,8.43,17.68c2.28,1.93,6,1,7.73-1.87.59-.94,3.75-16.57,7.73-37.82,9.66-51.7,10.13-54,11.65-57.32,1.35-3,3.22-5,43.68-48.3,10.07-10.77,28.92-30.91,41.8-44.67s23.83-25.88,24.3-26.76c.7-1.46.7-1.87-.18-3.16s-1.35-1.52-4-1.46A21,21,0,0,0,394,349.46Z" transform="translate(-132.51 -154.4)"/><path class="cls-4" d="M309.37,201.89a4.84,4.84,0,0,1,1.57,4.34c-.1,1.36-2.14,11.44-4.55,22.47-1.67,7.67-3,14.43-3.67,17.91a2.61,2.61,0,0,0,2.3,3.05c3.08.33,8.63.52,15.95.52,6.17.05,12,.26,13,.57,2.66.73,4.23,2.46,4.23,4.55,0,3.19.42,2.66-19.12,22.88-13.95,14.42-50.63,50.21-52.56,51.25a5.3,5.3,0,0,1-2.66.73,5.13,5.13,0,0,1-5.07-5.07c0-1.72,3.66-19.07,6.79-32.08,2.3-9.46,2.46-10.82,1.36-11.23-.42-.16-8.52-.42-18.08-.63l-16.18-.34a2.69,2.69,0,0,1-2.06-.94l-.45-.49c-1.93-2.25-1.58-4.5,1-7.79,2.87-3.66,68.65-69.8,70.69-71.11C304,198.71,308.13,200.41,309.37,201.89Z" transform="translate(-132.51 -154.4)"/></svg>